<mxfile host="app.diagrams.net" modified="2023-06-16T09:06:45.708Z" agent="Mozilla/5.0 (Windows NT 10.0; Win64; x64) AppleWebKit/537.36 (KHTML, like Gecko) Chrome/114.0.0.0 Safari/537.36" etag="iPQH-5NRZjDdViXWrJxf" version="21.4.0" type="device">
  <diagram id="Aa8zE_odiTU9IzYDQZ5F" name="Pagina-1">
    <mxGraphModel dx="1562" dy="1998" grid="1" gridSize="10" guides="1" tooltips="1" connect="1" arrows="1" fold="1" page="1" pageScale="1" pageWidth="827" pageHeight="1169" math="0" shadow="0">
      <root>
        <mxCell id="0" />
        <mxCell id="1" parent="0" />
        <mxCell id="NWdApNisp6wUuSrooen1-3" value="" style="rounded=0;whiteSpace=wrap;html=1;fillColor=#f5f5f5;strokeColor=#666666;fontColor=#333333;" vertex="1" parent="1">
          <mxGeometry y="-10" width="800" height="750" as="geometry" />
        </mxCell>
        <mxCell id="NWdApNisp6wUuSrooen1-22" style="edgeStyle=orthogonalEdgeStyle;rounded=0;orthogonalLoop=1;jettySize=auto;html=1;exitX=0;exitY=0.25;exitDx=0;exitDy=0;entryX=1;entryY=0.25;entryDx=0;entryDy=0;strokeWidth=5;endArrow=none;endFill=0;strokeColor=#000000;" edge="1" parent="1" source="NWdApNisp6wUuSrooen1-2" target="NWdApNisp6wUuSrooen1-6">
          <mxGeometry relative="1" as="geometry" />
        </mxCell>
        <mxCell id="NWdApNisp6wUuSrooen1-2" value="" style="rounded=1;whiteSpace=wrap;html=1;direction=west;fillColor=#ffcd28;gradientColor=#ffa500;strokeColor=#d79b00;" vertex="1" parent="1">
          <mxGeometry x="20" y="310" width="200" height="400" as="geometry" />
        </mxCell>
        <mxCell id="NWdApNisp6wUuSrooen1-13" style="edgeStyle=orthogonalEdgeStyle;rounded=0;orthogonalLoop=1;jettySize=auto;html=1;exitX=0.5;exitY=0;exitDx=0;exitDy=0;entryX=0.55;entryY=0.95;entryDx=0;entryDy=0;entryPerimeter=0;strokeColor=#000000;strokeWidth=4;endArrow=none;endFill=0;" edge="1" parent="1" source="pjYMbwaHNJNmNYDUiAKb-13" target="NWdApNisp6wUuSrooen1-11">
          <mxGeometry relative="1" as="geometry" />
        </mxCell>
        <mxCell id="pjYMbwaHNJNmNYDUiAKb-13" value="Internet Gateway" style="text;strokeColor=#82b366;align=center;fillColor=#d5e8d4;html=1;verticalAlign=middle;whiteSpace=wrap;rounded=0;fontSize=16;gradientColor=#97d077;fontColor=#000000;" parent="1" vertex="1">
          <mxGeometry x="370" y="180" width="90" height="50" as="geometry" />
        </mxCell>
        <mxCell id="NWdApNisp6wUuSrooen1-14" style="edgeStyle=orthogonalEdgeStyle;rounded=0;orthogonalLoop=1;jettySize=auto;html=1;exitX=0.5;exitY=1;exitDx=0;exitDy=0;entryX=0.5;entryY=1;entryDx=0;entryDy=0;fontColor=#000000;strokeWidth=3;strokeColor=#000000;endArrow=none;endFill=0;" edge="1" parent="1">
          <mxGeometry relative="1" as="geometry">
            <mxPoint x="413" y="310" as="sourcePoint" />
            <mxPoint x="414" y="230" as="targetPoint" />
          </mxGeometry>
        </mxCell>
        <mxCell id="NWdApNisp6wUuSrooen1-6" value="" style="rounded=1;whiteSpace=wrap;html=1;direction=west;fillColor=#ffcd28;gradientColor=#ffa500;strokeColor=#d79b00;" vertex="1" parent="1">
          <mxGeometry x="304" y="310" width="220" height="400" as="geometry" />
        </mxCell>
        <mxCell id="NWdApNisp6wUuSrooen1-26" style="edgeStyle=orthogonalEdgeStyle;rounded=0;orthogonalLoop=1;jettySize=auto;html=1;exitX=1;exitY=0.25;exitDx=0;exitDy=0;entryX=0;entryY=0.25;entryDx=0;entryDy=0;endArrow=none;endFill=0;strokeColor=#000000;strokeWidth=5;" edge="1" parent="1" source="NWdApNisp6wUuSrooen1-7" target="NWdApNisp6wUuSrooen1-6">
          <mxGeometry relative="1" as="geometry" />
        </mxCell>
        <mxCell id="NWdApNisp6wUuSrooen1-7" value="" style="rounded=1;whiteSpace=wrap;html=1;direction=west;glass=0;shadow=0;fillColor=#ffcd28;strokeColor=#d79b00;gradientColor=#ffa500;" vertex="1" parent="1">
          <mxGeometry x="580" y="310" width="200" height="400" as="geometry" />
        </mxCell>
        <mxCell id="NWdApNisp6wUuSrooen1-16" style="edgeStyle=orthogonalEdgeStyle;rounded=0;orthogonalLoop=1;jettySize=auto;html=1;exitX=1;exitY=0.5;exitDx=0;exitDy=0;entryX=1;entryY=0.5;entryDx=0;entryDy=0;strokeWidth=4;strokeColor=#000000;endArrow=none;endFill=0;dashed=1;" edge="1" parent="1" source="pjYMbwaHNJNmNYDUiAKb-17" target="pjYMbwaHNJNmNYDUiAKb-13">
          <mxGeometry relative="1" as="geometry">
            <Array as="points">
              <mxPoint x="550" y="550" />
              <mxPoint x="550" y="205" />
            </Array>
          </mxGeometry>
        </mxCell>
        <mxCell id="NWdApNisp6wUuSrooen1-29" style="edgeStyle=orthogonalEdgeStyle;rounded=0;orthogonalLoop=1;jettySize=auto;html=1;exitX=0;exitY=0.5;exitDx=0;exitDy=0;entryX=0.006;entryY=0.405;entryDx=0;entryDy=0;entryPerimeter=0;dashed=1;endArrow=none;endFill=0;strokeWidth=4;strokeColor=#000000;" edge="1" parent="1">
          <mxGeometry relative="1" as="geometry">
            <mxPoint x="370" y="551" as="sourcePoint" />
            <mxPoint x="218.79999999999995" y="549" as="targetPoint" />
            <Array as="points">
              <mxPoint x="219" y="551" />
            </Array>
          </mxGeometry>
        </mxCell>
        <mxCell id="pjYMbwaHNJNmNYDUiAKb-17" value="NAT Gateway&lt;br style=&quot;font-size: 13px;&quot;&gt;Elastic IP" style="text;strokeColor=#6c8ebf;align=center;fillColor=#dae8fc;html=1;verticalAlign=middle;whiteSpace=wrap;rounded=0;gradientColor=#7ea6e0;fontColor=#000000;fontSize=13;" parent="1" vertex="1">
          <mxGeometry x="356" y="520" width="114" height="60" as="geometry" />
        </mxCell>
        <mxCell id="pjYMbwaHNJNmNYDUiAKb-15" value="Private Subnet&lt;br&gt;&lt;div style=&quot;font-size: 14px; line-height: 19px;&quot;&gt;10.0.2.0&lt;/div&gt;" style="text;strokeColor=#666666;align=center;fillColor=#f5f5f5;html=1;verticalAlign=middle;whiteSpace=wrap;rounded=0;labelBackgroundColor=none;labelBorderColor=default;gradientColor=#b3b3b3;fontColor=#000000;fontFamily=Lucida Console;" parent="1" vertex="1">
          <mxGeometry x="55" y="330" width="100" height="50" as="geometry" />
        </mxCell>
        <mxCell id="pjYMbwaHNJNmNYDUiAKb-26" value="Private Subnet&lt;br&gt;&lt;b&gt;10.0.1.0&lt;/b&gt;" style="text;align=center;html=1;verticalAlign=middle;whiteSpace=wrap;rounded=0;labelBackgroundColor=none;fontFamily=Lucida Console;fillColor=#f5f5f5;gradientColor=#b3b3b3;strokeColor=#666666;fontColor=#000000;labelBorderColor=default;" parent="1" vertex="1">
          <mxGeometry x="630" y="330" width="100" height="50" as="geometry" />
        </mxCell>
        <mxCell id="pjYMbwaHNJNmNYDUiAKb-14" value="Public Subnet&lt;br&gt;&lt;div style=&quot;font-size: 14px; line-height: 19px;&quot;&gt;172.16.52.0&lt;/div&gt;" style="text;strokeColor=#666666;align=center;fillColor=#f5f5f5;html=1;verticalAlign=middle;whiteSpace=wrap;rounded=0;labelBackgroundColor=none;gradientColor=#b3b3b3;fontColor=#000000;fontFamily=Lucida Console;" parent="1" vertex="1">
          <mxGeometry x="360" y="330" width="110" height="50" as="geometry" />
        </mxCell>
        <mxCell id="NWdApNisp6wUuSrooen1-11" value="&lt;font style=&quot;font-size: 21px;&quot;&gt;Internet&lt;/font&gt;" style="ellipse;shape=cloud;whiteSpace=wrap;html=1;fillColor=#f5f5f5;fontColor=#333333;strokeColor=#666666;strokeWidth=4;" vertex="1" parent="1">
          <mxGeometry x="299" width="210" height="110" as="geometry" />
        </mxCell>
        <mxCell id="NWdApNisp6wUuSrooen1-23" value="&lt;font color=&quot;#000000&quot;&gt;&lt;font face=&quot;Lucida Console&quot;&gt;CIDR /27&lt;br&gt;10.0.1.0 - 10.1.32&lt;/font&gt;&lt;br&gt;&lt;/font&gt;" style="rounded=1;whiteSpace=wrap;html=1;fillColor=#f5f5f5;strokeColor=#666666;gradientColor=#CCCCCC;" vertex="1" parent="1">
          <mxGeometry x="610" y="465" width="140" height="120" as="geometry" />
        </mxCell>
        <mxCell id="NWdApNisp6wUuSrooen1-24" value="&lt;font color=&quot;#000000&quot;&gt;&lt;font face=&quot;Lucida Console&quot;&gt;CIDR /29&lt;br&gt;&lt;/font&gt;172.16.52.0 - 172.16.52.7&lt;br&gt;&lt;/font&gt;" style="rounded=1;whiteSpace=wrap;html=1;fillColor=#f5f5f5;strokeColor=#666666;gradientColor=#CCCCCC;" vertex="1" parent="1">
          <mxGeometry x="329" y="390" width="180" height="120" as="geometry" />
        </mxCell>
        <mxCell id="NWdApNisp6wUuSrooen1-25" value="&lt;font color=&quot;#000000&quot;&gt;&lt;font face=&quot;Lucida Console&quot;&gt;CIDR /27&lt;br&gt;&lt;/font&gt;10.0.2.0 - 10.0.2.32&lt;br&gt;&lt;/font&gt;" style="rounded=1;whiteSpace=wrap;html=1;fillColor=#f5f5f5;strokeColor=#666666;gradientColor=#CCCCCC;" vertex="1" parent="1">
          <mxGeometry x="35" y="465" width="140" height="120" as="geometry" />
        </mxCell>
      </root>
    </mxGraphModel>
  </diagram>
</mxfile>
